<svg width="100" height="124" viewBox="0 0 100 124" fill="none" xmlns="http://www.w3.org/2000/svg">
<rect width="100" height="100" rx="50" fill="#F7F7FC"/>
<path d="M38.3333 40.6667C38.3333 34.2233 43.5567 29 50 29C56.4433 29 61.6667 34.2233 61.6667 40.6667C61.6667 47.11 56.4433 52.3333 50 52.3333C43.5567 52.3333 38.3333 47.11 38.3333 40.6667ZM50 47.6667C53.866 47.6667 57 44.5327 57 40.6667C57 36.8007 53.866 33.6667 50 33.6667C46.134 33.6667 43 36.8007 43 40.6667C43 44.5327 46.134 47.6667 50 47.6667Z" fill="#0F1828"/>
<path d="M36.8007 60.134C33.3 63.6347 31.3333 68.3826 31.3333 73.3333H36C36 69.6203 37.475 66.0593 40.1005 63.4338C42.726 60.8083 46.287 59.3333 50 59.3333C53.713 59.3333 57.274 60.8083 59.8995 63.4338C62.525 66.0593 64 69.6203 64 73.3333H68.6667C68.6667 68.3826 66.7 63.6347 63.1993 60.134C59.6987 56.6333 54.9507 54.6667 50 54.6667C45.0493 54.6667 40.3014 56.6333 36.8007 60.134Z" fill="#0F1828"/>
<path d="M88 122C82.4797 121.994 78.0061 117.52 78 112V111.8C78.1099 106.305 82.6346 101.928 88.1307 102.001C93.6268 102.074 98.0337 106.569 97.9978 112.065C97.9619 117.562 93.4966 121.999 88 122ZM83 111V113H87V117H89V113H93V111H89V107H87V111H83Z" fill="#0F1828"/>
</svg>
